<?xml version="1.0"?><svg width="595.275" height="841.89" xmlns="http://www.w3.org/2000/svg">
 <!-- Created with SVG-edit - http://svg-edit.googlecode.com/ -->
 <title>Submarine</title>
 <g>
  <title>Layer 1</title>
  <g id="svg_69">
   <linearGradient gradientTransform="translate(12 0) translate(131 134) translate(-993.661 -48.2435)" id="svg_2" y2="0.512716" x2="1.00108" y1="0.512716" x1="0">
    <stop id="svg_3" stop-color="#000000" offset="0.0054"/>
    <stop id="svg_4" stop-color="#484848" offset="1"/>
   </linearGradient>
   <path id="svg_5" d="m376.637451,434.75647c33,10 66,25 85,36s33,16 35,35s-2.965942,27.333069 -20,35c-19.343994,8.707031 -66.333008,8 -119.333008,-13s-173.666992,-77 -178.666992,-83s-68,-58 -68,-58l4,-10c0,0 45,-3 61,1s152,43 152,43l49,14z" stroke-width="3" stroke="#000000" fill="url(#SVGID_7_)"/>
   <linearGradient gradientTransform="translate(12 0) translate(131 134) translate(-993.661 -48.2435)" id="svg_6" y2="0.5" x2="1.005097" y1="0.5" x1="0.000006">
    <stop id="svg_7" stop-color="#000000" offset="0.0054"/>
    <stop id="svg_8" stop-color="#484848" offset="1"/>
   </linearGradient>
   <path id="svg_9" d="m305.234497,381.389496l-4.131958,52.233002c0,0 33.246948,14.86499 55.647949,15.436005c22.402954,0.569977 25.322021,-4.028046 25.322021,-4.028046s9.494019,-42.749969 6.906982,-51.227997c-2.584961,-8.476959 -54.248047,-15.399994 -61.225952,-16.51297c-6.975098,-1.111023 -22.519043,4.100006 -22.519043,4.100006z" stroke-width="3" stroke="#000000" fill="url(#SVGID_8_)"/>
   <path id="svg_10" d="m114.637512,381.75647c-28,9 -27,16 -27,16l55,-1l-28,-15z" stroke-width="3" stroke="#000000" fill="#333333"/>
   <linearGradient gradientTransform="translate(12 0) translate(131 134) translate(-993.661 -48.2435)" id="svg_11" y2="0.500001" x2="1.000004" y1="0.500001" x1="-0.000002">
    <stop id="svg_12" stop-color="#000000" offset="0.0054"/>
    <stop id="svg_13" stop-color="#484848" offset="1"/>
   </linearGradient>
   <path id="svg_14" d="m387.005493,391.75647c2,4 -4.70105,13.333038 -19.70105,9.333038s-61.666992,-19.333038 -61.666992,-19.333038l20.118042,-6.46698c0,0 59.25,12.46698 61.25,16.46698z" stroke-width="3" stroke="#000000" fill="url(#SVGID_9_)"/>
   <polygon id="svg_15" points="142.63751220703125,372.7564697265625 128.63751220703125,329.7564697265625 114.63751220703125,325.7564697265625 114.63751220703125,376.7564697265625 151.63751220703125,380.7564697265625 " stroke-width="3" stroke="#000000" fill="#676767"/>
   <polygon id="svg_16" points="131.63751220703125,404.7564697265625 124.63751220703125,398.7564697265625 115.63751220703125,398.7564697265625 112.63751220703125,417.7564697265625 121.63751220703125,421.7564697265625 " stroke-width="3" stroke="#000000" fill="#333333"/>
   <polygon id="svg_17" points="348.637451171875,389.7564697265625 348.716552734375,386.720458984375 350.637451171875,312.7564697265625 344.637451171875,310.7564697265625 339.637451171875,385.7564697265625 " stroke-width="3" stroke="#000000" fill="#333333"/>
  </g>
 </g>
</svg>